<?xml version="1.0" standalone="no"?>
<!DOCTYPE svg PUBLIC "-//W3C//DTD SVG 20010904//EN"
 "http://www.w3.org/TR/2001/REC-SVG-20010904/DTD/svg10.dtd">
<svg version="1.0" xmlns="http://www.w3.org/2000/svg"
 width="512.000000pt" height="512.000000pt" viewBox="0 0 512.000000 512.000000"
 preserveAspectRatio="xMidYMid meet">

<g transform="translate(0.000000,512.000000) scale(0.100000,-0.100000)"
fill="#000000" stroke="none">
<path d="M0 2560 l0 -2560 2560 0 2560 0 0 2560 0 2560 -2560 0 -2560 0 0
-2560z m4330 1280 l0 -130 45 0 45 0 0 -135 0 -135 45 0 45 0 0 -175 0 -175
-1945 0 -1945 0 0 175 0 175 45 0 45 0 0 135 0 135 45 0 45 0 0 130 0 130
1765 0 1765 0 0 -130z"/>
</g>
</svg>
